<svg version="1.1" id="Layer_1" xmlns="http://www.w3.org/2000/svg"
  xmlns:xlink="http://www.w3.org/1999/xlink"
  viewBox="0 0 380.486 380.486" xml:space="preserve">
<g>
	<polygon style="fill:#FFE49C;" points="190.242,7.503 140.242,160.203 40.242,160.203 	"/>
	<polygon style="fill:#FFE49C;" points="340.242,160.203 240.242,160.203 190.242,7.503 	"/>
	<polygon style="fill:#F59D00;" points="240.242,160.203 140.242,160.203 190.242,7.503 	"/>
	<rect x="112.688" y="295.987" style="fill:#FFE49C;" width="155.109" height="24"/>
	<path style="fill:#F59D00;" d="M190.242,210.199c27.614,0,50-22.386,50-50h-100C140.242,187.813,162.628,210.199,190.242,210.199z"
		/>
	<path style="fill:#F59D00;" d="M290.242,210.199c27.614,0,50-22.386,50-50h-100C240.242,187.813,262.628,210.199,290.242,210.199z"
		/>
	<g>
		<path style="fill:#F59D00;" d="M90.242,210.199c27.614,0,50-22.386,50-50h-100C40.242,187.813,62.628,210.199,90.242,210.199z"/>
		<path style="fill:#414042;" d="M345.512,154.865L195.593,2.247c-2.949-3.016-7.79-2.977-10.701,0L34.973,154.865
			c-1.37,1.351-2.23,3.291-2.23,5.334c0,31.706,25.794,57.5,57.5,57.5c21.405,0,40.102-11.765,50-29.16
			c8.722,15.328,24.279,26.269,42.5,28.654v71.293h-70.055c-4.142,0-7.5,3.358-7.5,7.5v24v53c0,4.142,3.358,7.5,7.5,7.5
			s7.5-3.358,7.5-7.5v-45.5h62.555v45.5c0,4.142,3.358,7.5,7.5,7.5s7.5-3.358,7.5-7.5v-45.5h62.555v45.5c0,4.142,3.358,7.5,7.5,7.5
			s7.5-3.358,7.5-7.5v-53v-24c0-4.142-3.358-7.5-7.5-7.5h-70.055v-71.293c18.221-2.386,33.778-13.327,42.5-28.654
			c9.898,17.395,28.595,29.16,50,29.16c31.706,0,57.5-25.794,57.5-57.5C347.742,158.179,346.897,156.231,345.512,154.865z
			 M120.188,312.487v-9h62.555v9H120.188z M260.297,303.487v9h-62.555v-9H260.297z M150.591,152.699l39.651-121.094l39.651,121.094
			H150.591z M322.357,152.699h-76.68l-38.34-117.091L322.357,152.699z M134.808,152.699h-76.68l115.02-117.091L134.808,152.699z
			 M90.242,202.699c-20.874,0-38.282-15.128-41.836-34.996h83.673C128.524,187.57,111.116,202.699,90.242,202.699z M190.242,202.699
			c-20.874,0-38.282-15.128-41.837-34.996h83.673C228.524,187.57,211.116,202.699,190.242,202.699z M290.242,202.699
			c-20.874,0-38.282-15.128-41.837-34.996h83.673C328.524,187.57,311.116,202.699,290.242,202.699z"/>
	</g>
</g>
</svg>